# xmcd
#
# Track frame offsets:
#  150
#  14321
#  31191
#  55504
#  75475
#  96511
#  127277
#  151693
#  190888
#
# Disc length: 2717 seconds
#
# Revision: 0
# Processed by: cddbd v1.5.1PL2 Copyright (c) Steve Scherf et al.
# Submitted via: Collectorz.com_Music_Collector 6.9
#
DISCID=660a9b09
DTITLE=Olbrich, Mark - Blues Eternity (Featuring Sarasota Slim)
DYEAR=2006
DGENRE=
TTITLE0=XXI C Boogie (Milner)
TTITLE1=I'm Gonna Get You Baby (G. Hardage)
TTITLE2=I'll Be Your Fool (G. Hardage)
TTITLE3=Kudzu Killer (G. Hardage)
TTITLE4=Highway 61 (Bob Dylan)
TTITLE5=Bourbon to Beale (G. Hardage)
TTITLE6=Ceosscut Saw (R.G.Ford)
TTITLE7=Reconsider baby (Lowell Fulson)
TTITLE8=Shake Your Money Maker (Elmore James)
EXTD=
EXTT0=
EXTT1=
EXTT2=
EXTT3=
EXTT4=
EXTT5=
EXTT6=
EXTT7=
EXTT8=
PLAYORDER=
